REM GENRE "Hard Rock"
REM DATE 1980
REM DISCID 7F09D50A
REM COMMENT "ExactAudioCopy v1.6"
PERFORMER "AC/DC"
TITLE "Back In Black"
REM COMPOSER ""
FILE "ACDC - Back In Black.flac" WAVE
  TRACK 01 AUDIO
    TITLE "Hells Bells"
    PERFORMER "AC/DC"
    REM COMPOSER ""
    INDEX 01 00:00:00
  TRACK 02 AUDIO
    TITLE "Shoot To Thrill"
    PERFORMER "AC/DC"
    REM COMPOSER ""
    INDEX 01 05:12:10
  TRACK 03 AUDIO
    TITLE "What Do You Do For Money Honey"
    PERFORMER "AC/DC"
    REM COMPOSER ""
    INDEX 01 10:30:05
  TRACK 04 AUDIO
    TITLE "Given The Dog A Bone"
    PERFORMER "AC/DC"
    REM COMPOSER ""
    INDEX 01 14:05:45
  TRACK 05 AUDIO
    TITLE "Let Me Put My Love Into You"
    PERFORMER "AC/DC"
    REM COMPOSER ""
    INDEX 01 17:37:60
  TRACK 06 AUDIO
    TITLE "Back In Black"
    PERFORMER "AC/DC"
    REM COMPOSER ""
    INDEX 01 21:52:02
  TRACK 07 AUDIO
    TITLE "You Shook Me All Night Long"
    PERFORMER "AC/DC"
    REM COMPOSER ""
    INDEX 00 26:06:72
    INDEX 01 26:07:60
  TRACK 08 AUDIO
    TITLE "Have A Drink On Me"
    PERFORMER "AC/DC"
    REM COMPOSER ""
    INDEX 01 29:38:02
  TRACK 09 AUDIO
    TITLE "Shake A Leg"
    PERFORMER "AC/DC"
    REM COMPOSER ""
    INDEX 01 33:37:02
  TRACK 10 AUDIO
    TITLE "Rock And Roll Ain't Noise Pollution"
    PERFORMER "AC/DC"
    REM COMPOSER ""
    INDEX 00 37:42:52
    INDEX 01 37:42:72
